<?xml version="1.0" encoding="UTF-8"?>
<svg id="Flat" xmlns="http://www.w3.org/2000/svg" viewBox="0 0 64 64">
  <circle cx="31.983" cy="32.017" r="8.102" style="fill: #77b24c;"/>
  <path d="M31.982,51.956c-10.994,0-19.938-8.944-19.938-19.938S20.988,12.079,31.982,12.079s19.939,8.945,19.939,19.939-8.945,19.938-19.939,19.938ZM31.982,14.079c-9.891,0-17.938,8.047-17.938,17.939s8.047,17.938,17.938,17.938,17.939-8.047,17.939-17.938-8.047-17.939-17.939-17.939Z" style="fill: #b8c3d5;"/>
  <path d="M31.982,60.982c-15.971,0-28.965-12.994-28.965-28.965S16.011,3.052,31.982,3.052s28.965,12.994,28.965,28.965-12.994,28.965-28.965,28.965ZM31.982,5.052c-14.869,0-26.965,12.097-26.965,26.965s12.096,26.965,26.965,26.965,26.965-12.096,26.965-26.965S46.851,5.052,31.982,5.052Z" style="fill: #b8c3d5;"/>
  <path d="M46.169,4.017c-2.128,0-3.854,1.725-3.854,3.854s1.725,3.854,3.854,3.854,3.854-1.725,3.854-3.854-1.725-3.854-3.854-3.854Z" style="fill: #e26676;"/>
  <path d="M18.051,16.601c-2.128,0-3.854,1.725-3.854,3.854s1.725,3.854,3.854,3.854,3.854-1.725,3.854-3.854-1.725-3.854-3.854-3.854Z" style="fill: #e26676;"/>
  <path d="M10.343,46.235c-2.128,0-3.854,1.725-3.854,3.854s1.725,3.854,3.854,3.854,3.854-1.725,3.854-3.854-1.725-3.854-3.854-3.854Z" style="fill: #e26676;"/>
  <path d="M37.508,46.235c-2.128,0-3.854,1.725-3.854,3.854s1.725,3.854,3.854,3.854,3.854-1.725,3.854-3.854-1.725-3.854-3.854-3.854Z" style="fill: #e26676;"/>
  <path d="M56.129,42.013c-2.128,0-3.854,1.725-3.854,3.854s1.725,3.854,3.854,3.854,3.854-1.725,3.854-3.854-1.725-3.854-3.854-3.854Z" style="fill: #e26676;"/>
</svg>