<?xml version="1.0" encoding="UTF-8"?>
<svg id="Flat" xmlns="http://www.w3.org/2000/svg" viewBox="0 0 64 64">
  <path d="M16.092,45.709v14.291h40.873c1.677,0,3.036-1.359,3.036-3.036v-11.255H16.092Z" style="fill: #737e9b;"/>
  <path d="M52.653,36.76l-16.831-.031c-1.465,0-2.653,1.188-2.653,2.653v9.327l26.832-.01v-4.591c0-4.058-3.29-7.348-7.348-7.348Z" style="fill: #749dd1;"/>
  <path d="M36.343,15.737l1.15,3.252c.392.891,1.274,1.467,2.248,1.467h4.246c.974,0,1.856-.575,2.248-1.467l1.15-3.252c-3.772-2.473-7.458-2.603-11.042,0Z" style="fill: #9eabc4;"/>
  <path d="M57.636,4H11.473c-4.128,0-7.474,3.346-7.474,7.474v46.021c0,1.384,1.122,2.505,2.505,2.505h14.587V17.827c0-1.155.936-2.091,2.091-2.091h27.468c4.601,0,8.333-3.724,8.343-8.325l.005-2.046c.002-.753-.608-1.364-1.361-1.364Z" style="fill: #d3dce5;"/>
  <path d="M12.553,29.78c-1.833,0-3.318,1.486-3.318,3.318v14.154c0,1.833,1.486,3.318,3.318,3.318s3.318-1.486,3.318-3.318v-14.154c0-1.833-1.486-3.318-3.318-3.318Z" style="fill: #9eabc4;"/>
  <rect x="9.234" y="36.484" width="6.637" height="6.251" style="fill: #737e9b;"/>
  <path d="M59,5.36l-.01,2.05c0,.54-.06,1.07-.15,1.58H23.47c-1.17,0-2.13-.95-2.13-2.13v-2.86h36.3c.75,0,1.36.61,1.36,1.36Z" style="fill: #9eabc4;"/>
  <path d="M12.553,17.682c-1.772,0-3.209,1.436-3.209,3.209s1.437,3.209,3.209,3.209c1.772,0,3.209-1.437,3.209-3.209s-1.437-3.209-3.209-3.209Z" style="fill: #9eabc4;"/>
  <circle cx="28.69" cy="41.229" r="4.479" transform="translate(-8.705 7.694) rotate(-13.282)" style="fill: #d68076;"/>
  <rect x="21.092" y="45.709" width="38.909" height="5.515" style="fill: #85b8db;"/>
  <g>
    <path d="M41.652,30.639c-2.668,0-5.217-.84-7.37-2.429-.444-.328-.539-.954-.211-1.398s.954-.538,1.398-.211c1.808,1.333,3.945,2.038,6.183,2.038s4.376-.705,6.182-2.038c.445-.327,1.07-.233,1.398.211s.233,1.07-.211,1.398c-2.152,1.589-4.7,2.429-7.369,2.429Z" style="fill: #ecc865;"/>
    <path d="M41.652,26.136c-1.708,0-3.36-.519-4.779-1.501-.454-.314-.567-.938-.253-1.392.313-.454.936-.568,1.392-.253,2.164,1.498,5.117,1.498,7.281,0,.454-.315,1.077-.201,1.392.253s.201,1.077-.253,1.392c-1.419.982-3.071,1.501-4.779,1.501Z" style="fill: #ecc865;"/>
  </g>
</svg>