<?xml version="1.0" encoding="utf-8"?>
<!-- Generator: Adobe Illustrator 16.0.0, SVG Export Plug-In . SVG Version: 6.00 Build 0)  -->
<!DOCTYPE svg PUBLIC "-//W3C//DTD SVG 1.0//EN" "http://www.w3.org/TR/2001/REC-SVG-20010904/DTD/svg10.dtd">
<svg version="1.0" id="Layer_1" xmlns="http://www.w3.org/2000/svg" xmlns:xlink="http://www.w3.org/1999/xlink" x="0px" y="0px"
	 width="100px" height="100px" viewBox="0 0 100 100" enable-background="new 0 0 100 100" xml:space="preserve">
<path fill="#E3F2FD" d="M50,10c-20.965,0-38.154,16.136-39.852,36.667h20.133C31.869,37.208,40.09,30,50,30
	c11.046,0,20,8.954,20,20.001c0,9.907-7.208,18.129-16.666,19.717v20.133C73.863,88.155,90,70.966,90,50.001
	C90,27.909,72.09,10,50,10z"/>
<path fill="#2962FF" d="M53.334,89.851C52.233,89.942,51.124,90,50,90c-22.09,0-40-17.91-40-39.999c0-1.124,0.059-2.234,0.148-3.334
	h20.133C30.1,47.751,30,48.864,30,50.001C30,61.045,38.952,70,50,70c1.137,0,2.249-0.1,3.334-0.282V89.851z"/>
<path fill="#2E3192" d="M53.334,69.718C62.792,68.13,70,59.908,70,50.001C70,38.954,61.046,30,50,30
	c-9.91,0-18.131,7.208-19.719,16.667h-6.717C25.209,33.516,36.402,23.333,50,23.333c14.727,0,26.668,11.938,26.668,26.667
	c0,13.596-10.188,24.791-23.334,26.436V69.718z"/>
<path fill="#2E3192" d="M53.334,89.851C73.863,88.155,90,70.966,90,50.001C90,27.909,72.09,10,50,10
	c-20.965,0-38.154,16.136-39.852,36.667h6.687c1.673-16.846,15.88-30,33.164-30c18.408,0,33.333,14.924,33.333,33.334
	c0.002,17.282-13.156,31.491-29.998,33.164V89.851z"/>
</svg>
