<?xml version="1.0" encoding="UTF-8"?>
<svg id="Filled_Line" xmlns="http://www.w3.org/2000/svg" viewBox="0 0 64 64">
  <circle cx="31.983" cy="32.017" r="8.102" style="fill: #77b24c;"/>
  <path d="M46.169,4.017c-2.128,0-3.854,1.725-3.854,3.854s1.725,3.854,3.854,3.854,3.854-1.725,3.854-3.854-1.725-3.854-3.854-3.854Z" style="fill: #e26676;"/>
  <path d="M18.051,16.601c-2.128,0-3.854,1.725-3.854,3.854s1.725,3.854,3.854,3.854,3.854-1.725,3.854-3.854-1.725-3.854-3.854-3.854Z" style="fill: #e26676;"/>
  <path d="M10.343,46.235c-2.128,0-3.854,1.725-3.854,3.854s1.725,3.854,3.854,3.854,3.854-1.725,3.854-3.854-1.725-3.854-3.854-3.854Z" style="fill: #e26676;"/>
  <path d="M37.508,46.235c-2.128,0-3.854,1.725-3.854,3.854s1.725,3.854,3.854,3.854,3.854-1.725,3.854-3.854-1.725-3.854-3.854-3.854Z" style="fill: #e26676;"/>
  <path d="M56.129,42.013c-2.128,0-3.854,1.725-3.854,3.854s1.725,3.854,3.854,3.854,3.854-1.725,3.854-3.854-1.725-3.854-3.854-3.854Z" style="fill: #e26676;"/>
  <path d="M31.982,22.915c-5.019,0-9.103,4.083-9.103,9.103s4.083,9.103,9.103,9.103,9.103-4.083,9.103-9.103-4.083-9.103-9.103-9.103ZM31.982,39.12c-3.917,0-7.103-3.186-7.103-7.103s3.186-7.103,7.103-7.103,7.103,3.186,7.103,7.103-3.186,7.103-7.103,7.103ZM59.133,42.085c1.199-3.227,1.815-6.609,1.815-10.068,0-8.617-3.769-16.644-10.355-22.171.271-.605.43-1.271.43-1.975,0-2.676-2.177-4.854-4.854-4.854-1.58,0-2.973.77-3.86,1.943-3.298-1.261-6.767-1.908-10.327-1.908C16.011,3.052,3.018,16.046,3.018,32.018c0,5.145,1.378,10.162,3.963,14.585-.916.883-1.491,2.117-1.491,3.486,0,2.676,2.178,4.854,4.854,4.854,1.053,0,2.022-.346,2.818-.918,5.245,4.49,11.89,6.958,18.821,6.958,8.743,0,16.848-3.86,22.38-10.606.549.216,1.142.344,1.766.344,2.676,0,4.854-2.178,4.854-4.854,0-1.536-.732-2.892-1.849-3.782ZM46.169,5.018c1.573,0,2.854,1.28,2.854,2.854s-1.28,2.854-2.854,2.854-2.854-1.28-2.854-2.854,1.28-2.854,2.854-2.854ZM10.343,52.942c-1.574,0-2.854-1.28-2.854-2.854s1.28-2.854,2.854-2.854,2.854,1.28,2.854,2.854-1.28,2.854-2.854,2.854ZM31.982,58.982c-6.432,0-12.601-2.283-17.476-6.438.428-.723.691-1.556.691-2.456,0-2.676-2.178-4.854-4.854-4.854-.587,0-1.143.121-1.664.313-2.388-4.105-3.661-8.759-3.661-13.53,0-14.869,12.096-26.965,26.965-26.965,3.263,0,6.443.582,9.469,1.72-.083.354-.137.719-.137,1.099,0,2.676,2.178,4.854,4.854,4.854,1.248,0,2.377-.487,3.237-1.264,6.071,5.143,9.541,12.579,9.541,20.557,0,3.147-.546,6.225-1.612,9.166-.388-.1-.788-.17-1.207-.17-2.676,0-4.854,2.177-4.854,4.854,0,1.328.538,2.531,1.405,3.408-5.147,6.177-12.631,9.707-20.697,9.707ZM56.129,48.721c-1.574,0-2.854-1.28-2.854-2.854s1.28-2.854,2.854-2.854,2.854,1.28,2.854,2.854-1.28,2.854-2.854,2.854ZM31.982,12.079c-4.343,0-8.44,1.383-11.907,3.979-.618-.286-1.3-.457-2.024-.457-2.676,0-4.854,2.178-4.854,4.854,0,1.039.335,1.998.893,2.788-1.335,2.721-2.047,5.737-2.047,8.775,0,10.994,8.944,19.938,19.938,19.938.328,0,.675-.013,1.036-.034.725,1.769,2.462,3.021,4.489,3.021,2.676,0,4.854-2.177,4.854-4.854,0-.342-.037-.675-.105-.997,5.977-3.602,9.665-10.065,9.665-17.074,0-10.994-8.945-19.939-19.939-19.939ZM18.051,17.601c1.573,0,2.854,1.28,2.854,2.854s-1.28,2.854-2.854,2.854-2.854-1.28-2.854-2.854,1.28-2.854,2.854-2.854ZM37.508,52.942c-1.574,0-2.854-1.28-2.854-2.854s1.28-2.854,2.854-2.854,2.854,1.28,2.854,2.854-1.28,2.854-2.854,2.854ZM41.432,47.257c-.883-1.219-2.308-2.022-3.924-2.022-2.625,0-4.757,2.098-4.839,4.703-.237.011-.468.018-.687.018-9.891,0-17.938-8.047-17.938-17.938,0-2.542.549-5.069,1.592-7.378.714.414,1.532.669,2.416.669,2.676,0,4.854-2.177,4.854-4.854,0-1.199-.453-2.284-1.177-3.132,3.02-2.119,6.538-3.244,10.254-3.244,9.892,0,17.939,8.047,17.939,17.939,0,6.226-3.232,11.975-8.489,15.239Z" style="fill: #1a2c3d;"/>
</svg>