<?xml version="1.0" encoding="UTF-8"?>
<svg id="Filled_Line" xmlns="http://www.w3.org/2000/svg" viewBox="0 0 64 64">
  <path d="M58.628,40.66c.887-2.728,1.372-5.637,1.372-8.66,0-15.464-12.536-28-28-28S4,16.536,4,32s12.536,28,28,28c2.793,0,5.488-.414,8.033-1.176l18.595-18.164Z" style="fill: #536882;"/>
  <circle cx="32" cy="32" r="23.325" style="fill: #ecc865;"/>
  <path d="M32,28.546c-1.907,0-3.454,1.546-3.454,3.454s1.546,3.454,3.454,3.454,3.454-1.546,3.454-3.454-1.546-3.454-3.454-3.454Z" style="fill: #536882;"/>
  <path d="M35.548,37.763c-1.033.637-2.245,1.011-3.548,1.011-1.193,0-2.313-.311-3.286-.853l-4.024,9.587c2.222,1.044,4.693,1.644,7.31,1.644,2.827,0,5.487-.694,7.842-1.9l-4.294-9.489Z" style="fill: #536882;"/>
  <path d="M28.643,26.121l-6.137-8.591c-4.252,2.812-7.18,7.455-7.666,12.808l10.387,1.637c.009-2.508,1.383-4.69,3.416-5.853Z" style="fill: #536882;"/>
  <path d="M38.773,31.977l10.387-1.637c-.485-5.35-3.409-9.991-7.656-12.804l-6.137,8.591c2.028,1.165,3.397,3.345,3.406,5.849Z" style="fill: #536882;"/>
  <path d="M58.628,40.66c-2.065-1.3-4.502-2.063-7.122-2.063-7.402,0-13.403,6.001-13.403,13.403,0,2.508.701,4.846,1.9,6.853l18.625-18.194Z" style="fill: #d3dce5;"/>
  <path d="M32,27.547c-2.455,0-4.453,1.998-4.453,4.453s1.998,4.453,4.453,4.453,4.453-1.998,4.453-4.453-1.998-4.453-4.453-4.453ZM32,34.453c-1.353,0-2.453-1.101-2.453-2.453s1.101-2.453,2.453-2.453,2.453,1.101,2.453,2.453-1.101,2.453-2.453,2.453ZM29.14,26.989c.245-.141.42-.379.479-.654.061-.276,0-.565-.163-.795l-6.137-8.591c-.312-.438-.914-.549-1.365-.253-4.651,3.077-7.607,8.016-8.109,13.552-.048.524.32.996.841,1.078l10.386,1.637c.052.008.104.012.155.012.236,0,.466-.084.648-.238.222-.189.351-.466.352-.758.008-2.053,1.124-3.965,2.913-4.989ZM24.317,30.819l-8.37-1.319c.628-4.232,2.885-8.009,6.322-10.581l4.962,6.947c-1.563,1.22-2.61,2.999-2.914,4.953ZM42.057,16.702c-.449-.297-1.054-.185-1.366.253l-6.137,8.591c-.164.229-.224.518-.164.794.061.275.234.514.479.654,1.785,1.026,2.898,2.937,2.905,4.986,0,.291.13.568.352.758.183.154.412.238.648.238.052,0,.104-.004.155-.012l10.387-1.637c.521-.082.889-.554.841-1.079-.502-5.531-3.454-10.469-8.1-13.547ZM39.683,30.821c-.303-1.95-1.346-3.728-2.905-4.947l4.963-6.948c3.432,2.572,5.686,6.347,6.313,10.576l-8.371,1.319ZM32,3C16.01,3,3,16.01,3,32s13.01,29,29,29c2.817,0,5.616-.41,8.319-1.218.155-.046.297-.13.413-.242l18.595-18.164c.115-.113.202-.253.252-.406.942-2.901,1.421-5.919,1.421-8.97,0-15.99-13.01-29-29-29ZM5,32c0-14.888,12.112-27,27-27s27,12.112,27,27c0,2.431-.345,4.833-.989,7.169-.803-.409-1.636-.746-2.494-.997.526-2.009.809-4.078.809-6.172,0-13.413-10.912-24.325-24.325-24.325S7.675,18.587,7.675,32s10.912,24.325,24.325,24.325c1.879,0,3.752-.232,5.587-.665.23.866.544,1.71.933,2.525-2.134.531-4.319.816-6.52.816-14.888,0-27-12.112-27-27ZM40.265,57.199c-.758-1.632-1.162-3.405-1.162-5.199,0-6.839,5.564-12.403,12.403-12.403,1.898,0,3.76.446,5.46,1.287l-16.702,16.316ZM53.562,37.747c-.678-.099-1.365-.15-2.055-.15-5.012,0-9.428,2.576-12.009,6.469l-3.039-6.716c-.118-.262-.344-.46-.619-.544-.275-.086-.572-.046-.817.105-1.754,1.083-4.037,1.129-5.823.136-.248-.14-.544-.163-.812-.071-.269.093-.484.296-.595.559l-4.024,9.586c-.208.494.012,1.063.497,1.292,2.456,1.154,5.059,1.739,7.735,1.739,1.828,0,3.623-.278,5.361-.819-.163.865-.258,1.755-.258,2.667,0,.567.04,1.132.107,1.693-1.711.411-3.458.632-5.211.632-12.311,0-22.325-10.015-22.325-22.325s10.015-22.325,22.325-22.325,22.325,10.015,22.325,22.325c0,1.951-.267,3.877-.763,5.747ZM38.031,46.961c-3.866,1.557-8.177,1.579-12.038.025l3.241-7.721c1.869.71,4.004.666,5.837-.129l3.228,7.134c-.098.226-.181.459-.268.691Z" style="fill: #1a2c3d;"/>
</svg>