<?xml version="1.0" encoding="UTF-8"?>
<svg id="Outline" xmlns="http://www.w3.org/2000/svg" viewBox="0 0 64 64">
  <path d="M37.924,25.987c-.451-.298-1.053-.186-1.366.253l-3.727,5.217c-.268-.063-.544-.105-.831-.105-.285,0-.559.041-.825.103l-3.727-5.218c-.312-.438-.916-.55-1.365-.253-2.741,1.812-4.482,4.721-4.778,7.981-.047.525.32.996.84,1.079l6.385,1.006c.172.564.464,1.075.866,1.487l-2.45,5.837c-.208.494.012,1.063.497,1.292,1.446.679,2.979,1.023,4.557,1.023,1.711,0,3.355-.398,4.888-1.184.475-.243.675-.815.455-1.302l-2.627-5.805c.342-.386.598-.843.752-1.348l6.386-1.006c.52-.082.888-.554.84-1.078-.295-3.26-2.034-6.169-4.771-7.981ZM33.644,34.996c0,.907-.737,1.645-1.644,1.645s-1.644-.737-1.644-1.645.737-1.644,1.644-1.644,1.644.737,1.644,1.644ZM26.412,28.227l3.004,4.206c-.431.435-.74.984-.91,1.59l-5.075-.8c.39-1.962,1.437-3.716,2.981-4.996ZM29.181,43.218l1.967-4.688c.274.066.557.111.852.111.353,0,.687-.066,1.01-.16l2.097,4.636c-1.884.723-4.003.764-5.926.102ZM35.495,34.023c-.169-.605-.477-1.152-.906-1.586l3.005-4.207c1.541,1.28,2.586,3.034,2.976,4.994l-5.074.799ZM54.692,35.004c0-1.898-1.383-3.472-3.192-3.789v-15.563c1.81-.317,3.192-1.891,3.192-3.79,0-2.126-1.73-3.856-3.857-3.856l-20.72-.009v-1.746c0-1.794-1.459-3.254-3.254-3.254h-5.729c-1.794,0-3.254,1.46-3.254,3.254v1.741l-4.714-.002c-2.127,0-3.857,1.73-3.857,3.857,0,1.898,1.383,3.472,3.192,3.789v15.563c-1.81.317-3.192,1.891-3.192,3.789s1.383,3.473,3.192,3.79v14.563c-1.81.317-3.192,1.891-3.192,3.789,0,2.127,1.73,3.857,3.857,3.857l37.67.016c2.127,0,3.857-1.73,3.857-3.857,0-1.898-1.383-3.472-3.192-3.789v-14.563c1.81-.317,3.192-1.891,3.192-3.79ZM14.5,53.275v-14.429h3.069c1.705,6.382,7.52,11.102,14.431,11.102s12.718-4.714,14.428-11.089h3.072v14.43l-35-.015ZM49.5,15.718v15.429l-3.069-.002c-1.705-6.381-7.52-11.101-14.431-11.101s-12.719,4.714-14.428,11.09h-3.072v-15.43l35,.015ZM44.952,34.996c0,7.142-5.811,12.952-12.952,12.952s-12.952-5.811-12.952-12.952,5.811-12.952,12.952-12.952,12.952,5.811,12.952,12.952ZM52.692,35.004c0,1.024-.833,1.857-1.857,1.857l-4.012-.002c.077-.612.129-1.231.129-1.864,0-.628-.051-1.243-.127-1.851l4.01.002c1.024,0,1.857.833,1.857,1.856ZM19.879,6.25c0-.691.562-1.254,1.254-1.254h5.729c.691,0,1.254.562,1.254,1.254v1.745l-8.236-.003v-1.742ZM11.308,11.847c0-1.024.833-1.857,1.857-1.857l37.67.016c1.024,0,1.857.833,1.857,1.856s-.833,1.857-1.857,1.857l-37.67-.016h0c-1.024,0-1.857-.833-1.857-1.856ZM11.308,34.988c0-1.023.833-1.856,1.857-1.856l4.012.002c-.077.612-.129,1.231-.129,1.863,0,.628.051,1.243.127,1.851l-4.01-.002c-1.024,0-1.857-.833-1.857-1.857ZM52.692,57.146c0,1.024-.833,1.857-1.857,1.857l-37.67-.016h0c-1.024,0-1.857-.833-1.857-1.857s.833-1.856,1.857-1.856l37.67.016c1.024,0,1.857.833,1.857,1.856Z"/>
</svg>